<?xml version="1.0" standalone="no"?>
<!DOCTYPE svg PUBLIC "-//W3C//DTD SVG 20010904//EN"
 "http://www.w3.org/TR/2001/REC-SVG-20010904/DTD/svg10.dtd">
<svg version="1.0" xmlns="http://www.w3.org/2000/svg"
 width="300.000000pt" height="169.000000pt" viewBox="0 0 300.000000 169.000000"
 preserveAspectRatio="xMidYMid meet">
<metadata>
Created by potrace 1.10, written by Peter Selinger 2001-2011
</metadata>
<g transform="translate(0.000000,169.000000) scale(0.100000,-0.100000)"
fill="#000000" stroke="none">
<path d="M5 1678 c-3 -7 -4 -386 -3 -843 l3 -830 1495 0 1495 0 0 840 0 840
-1493 3 c-1189 2 -1494 0 -1497 -10z m345 -98 l0 -100 -170 0 -170 0 0 100 0
100 170 0 170 0 0 -100z m600 -15 l0 -115 520 0 520 0 0 115 0 115 295 0 295
0 0 -695 0 -695 205 0 205 0 0 -140 0 -140 -1490 0 -1490 0 2 186 3 186 166
-1 c128 -2 168 1 177 12 8 9 11 194 9 650 l-2 637 293 0 292 0 0 -115z m338 8
l-3 -108 -157 -3 c-87 -1 -158 1 -158 5 0 5 -1 54 -3 111 l-3 102 164 0 163 0
-3 -107z m333 103 c2 -2 3 -52 1 -110 l-3 -106 -160 0 -159 0 0 110 0 110 158
0 c87 0 161 -2 163 -4z m357 -103 l-3 -108 -167 -3 -168 -2 0 110 0 110 170 0
171 0 -3 -107z m1012 -5 l0 -108 -194 0 -195 0 -3 106 c-2 58 -2 106 -1 107 1
1 89 2 197 2 l196 0 0 -107z m-2640 -205 l0 -98 -170 0 -170 0 0 98 0 97 170
0 170 0 0 -97z m2640 -28 l0 -105 -195 0 -195 0 0 105 0 105 195 0 195 0 0
-105z m-2640 -185 l0 -100 -170 0 -170 0 0 100 0 100 170 0 170 0 0 -100z
m2640 -45 l0 -105 -195 0 -195 0 0 105 0 105 195 0 195 0 0 -105z m-2640 -165
l0 -100 -170 0 -170 0 0 100 0 100 170 0 170 0 0 -100z m2640 -65 l0 -105
-195 0 -195 0 0 105 0 105 195 0 195 0 0 -105z m-2640 -150 l0 -95 -170 0
-170 0 0 95 0 95 170 0 170 0 0 -95z m2640 -86 c0 -97 -2 -110 -16 -105 -9 3
-96 6 -195 6 l-179 0 0 105 0 105 195 0 195 0 0 -111z m-2640 -134 l0 -105
-170 0 -170 0 0 105 0 105 170 0 170 0 0 -105z m2640 -94 l0 -110 -195 1 -195
0 0 109 0 109 195 0 195 0 0 -109z"/>
<path d="M954 1317 c-2 -7 -3 -89 -2 -182 l3 -170 515 0 515 0 0 180 0 180
-513 3 c-412 2 -514 0 -518 -11z m1026 -172 l0 -165 -510 0 -510 0 0 165 0
165 510 0 510 0 0 -165z"/>
<path d="M952 513 l3 -318 515 0 515 0 3 318 2 317 -520 0 -520 0 2 -317z
m338 207 l0 -90 -165 0 -165 0 0 90 0 90 165 0 165 0 0 -90z m690 0 l0 -90
-337 0 -338 0 0 90 0 90 338 0 337 0 0 -90z m-690 -205 l0 -95 -162 0 -163 0
0 95 0 95 163 0 162 0 0 -95z m690 0 l0 -95 -337 0 -338 0 0 95 0 95 338 0
337 0 0 -95z m-690 -210 l0 -95 -162 0 -163 0 0 95 0 95 163 0 162 0 0 -95z
m690 0 l0 -95 -337 0 -338 0 0 95 0 95 338 0 337 0 0 -95z"/>
</g>
</svg>
